<svg width="709" height="2217" viewBox="0 0 709 2217" fill="none" xmlns="http://www.w3.org/2000/svg">
<path d="M457.664 0C394.7 120.698 331.909 241.569 268.945 362.266C259.95 379.558 250.782 397.369 250.436 416.39C250.09 435.411 260.815 455.989 280.881 462.387C313.4 472.762 342.979 442.501 361.315 416.39C394.873 368.146 428.603 319.901 462.161 271.656C464.756 445.268 465.275 619.052 463.718 792.663C461.642 1032.68 455.761 1274.59 398.678 1509.24C341.596 1743.72 229.506 1973.01 40.6146 2143.51C18.1276 2163.74 -7.47312 2189.85 2.04065 2217C84.378 2216.31 151.839 2159.76 203.733 2102.53C375.499 1913.35 476.518 1678.53 526.336 1438.86C576.153 1199.2 577.018 953.651 565.083 710.007C556.434 530.863 540.866 352.064 518.552 173.957C558.337 275.115 623.895 368.146 709 443.711C700.005 273.04 606.078 107.383 457.491 0H457.664ZM365.467 375.927C362.526 374.198 362.526 369.875 365.467 368.146C368.407 369.875 368.407 374.198 365.467 375.927ZM378.613 336.328C376.71 336.328 376.71 333.043 378.613 333.043C380.343 333.216 380.516 336.328 378.613 336.328ZM401.792 320.42C400.408 320.42 399.197 319.901 398.678 318.691C396.43 314.886 404.732 311.082 406.981 315.059C408.538 317.826 404.905 320.42 401.792 320.42ZM440.02 254.019C437.079 252.29 437.079 247.967 440.02 246.237C442.961 247.967 442.961 252.29 440.02 254.019ZM444.517 238.456C442.442 237.245 441.577 234.652 442.442 232.577H442.096C442.442 230.675 446.247 231.193 446.766 233.095C447.285 234.998 445.728 236.9 444.344 238.456H444.517ZM448.842 218.051C447.977 218.051 447.112 217.706 446.939 216.841C446.939 215.112 450.572 215.285 450.745 216.841C450.745 217.706 449.707 218.051 448.842 218.051ZM457.664 245.891C455.761 245.891 455.761 242.779 457.664 242.606C459.393 242.606 459.566 245.891 457.664 245.891ZM144.574 2139.71C140.596 2142.47 135.06 2144.03 132.812 2148.01C129.352 2145.41 130.909 2139.53 135.233 2138.67V2138.15C138.693 2134.86 142.325 2131.75 145.958 2128.47C150.628 2130.37 148.726 2136.94 144.574 2139.71ZM518.725 300.361C518.206 302.955 515.265 304.511 512.325 304.511C510.941 304.511 509.73 304.165 508.692 303.301C505.578 300.707 506.789 295.173 510.768 293.963C514.746 292.753 519.59 296.557 518.725 300.188V300.361ZM167.926 2112.38C166.023 2112.38 166.023 2109.1 167.926 2109.1C169.656 2109.27 169.656 2112.38 167.926 2112.38ZM198.543 2089.56V2089.21C195.257 2091.81 191.97 2094.4 188.683 2096.99C188.683 2087.66 198.024 2079.18 208.403 2078.84C212.381 2083.16 204.597 2088.35 198.543 2089.56ZM210.825 2073.3C209.787 2073.82 208.576 2074.17 207.365 2074.17C204.943 2074.17 202.695 2073.13 201.484 2071.23C203.387 2067.77 207.538 2065.35 211.862 2065.18L212.727 2064.83C214.803 2067.42 213.765 2071.57 210.825 2073.3ZM233.831 2049.96C231.755 2048.58 230.89 2046.16 231.755 2044.08H231.582C231.928 2042.18 235.733 2042.7 236.252 2044.6C236.771 2046.5 235.387 2048.4 234.004 2049.96H233.831ZM259.95 2022.47C257.01 2018.83 253.204 2015.9 248.707 2013.99C250.09 2004.48 256.491 1995.84 265.658 1990.82C266.177 2001.54 264.102 2012.26 259.777 2022.29L259.95 2022.47ZM277.594 1990.65C275.691 1990.65 275.691 1987.36 277.594 1987.36C279.497 1987.36 279.497 1990.65 277.594 1990.65ZM280.016 1957.45C280.016 1955.89 283.648 1955.72 283.821 1957.45C283.821 1959.18 280.189 1959 280.016 1957.45ZM288.837 1976.99C289.01 1975.43 292.47 1975.43 292.643 1976.99C292.643 1978.72 289.01 1978.54 288.837 1976.99ZM299.216 1959.18C296.103 1956.76 297.659 1950.7 301.811 1951.4H302.157C300.427 1948.46 302.157 1944.31 305.443 1943.27C305.443 1948.97 303.368 1954.68 299.389 1959.18H299.216ZM330.179 1888.8C327.065 1885.51 327.066 1880.15 330.006 1876.69H330.352C333.466 1880.15 333.293 1885.51 330.179 1888.8ZM352.32 1877.04L351.455 1876.69C350.245 1880.84 349.034 1885.17 347.823 1889.32C343.498 1881.54 345.574 1871.33 352.493 1865.11C355.261 1868.57 355.088 1873.58 352.147 1876.87L352.32 1877.04ZM363.045 1837.61C361.315 1837.61 359.585 1836.92 358.72 1835.71C360.623 1833.12 365.467 1833.12 367.369 1835.71C366.504 1837.1 364.775 1837.61 363.045 1837.61ZM375.845 1796.46C374.98 1799.05 372.213 1800.96 369.272 1801.82C367.369 1800.78 366.677 1798.19 367.715 1796.46L368.407 1795.77C366.158 1793.87 368.753 1789.89 371.867 1790.24C374.98 1790.58 376.883 1793.87 376.018 1796.46H375.845ZM384.667 1802.69C384.667 1802.69 383.629 1802.69 383.11 1802.34C379.997 1800.96 380.516 1796.81 382.245 1794.21C384.148 1791.62 386.916 1789.2 386.916 1786.26C388.127 1788.16 389.164 1790.06 390.202 1791.96L388.992 1792.48C390.202 1796.46 388.3 1802.69 384.667 1802.69ZM428.43 1698.59C424.798 1716.74 417.014 1733.86 409.23 1750.81C406.635 1756.52 404.041 1762.22 401.273 1767.93C399.889 1771.04 396.43 1774.5 393.316 1774.5C392.451 1774.5 391.586 1774.15 390.721 1773.46C388.473 1771.21 390.375 1767.76 392.278 1765.33C404.214 1749.25 411.133 1730.58 417.879 1712.08C420.3 1705.33 422.895 1698.41 425.317 1691.67C428.257 1691.84 428.776 1695.65 428.257 1698.41L428.43 1698.59ZM440.02 1672.82C438.636 1671.27 437.079 1669.36 437.598 1667.46C438.117 1665.56 441.923 1665.04 442.269 1666.94H441.923C442.787 1669.02 441.923 1671.61 439.847 1672.82H440.02ZM446.42 1644.46C444.863 1644.46 443.479 1643.95 442.442 1643.08C439.501 1640.31 441.058 1634.95 445.209 1633.92C449.361 1632.88 453.685 1637.03 452.647 1640.66C451.955 1643.08 449.188 1644.46 446.42 1644.46ZM453.166 1620.95C452.301 1620.95 451.436 1620.6 451.263 1619.74C451.436 1618.01 454.896 1618.18 455.069 1619.74C455.069 1620.6 454.031 1620.95 453.166 1620.95ZM475.653 1572.01C474.096 1584.98 466.658 1597.26 455.415 1605.38C457.318 1598.64 459.22 1592.07 461.123 1585.33C467.177 1564.4 473.232 1543.31 479.113 1522.38C479.459 1521 480.151 1519.44 481.707 1519.27C482.053 1533.1 479.805 1546.76 474.961 1559.91C473.405 1563.88 472.021 1569.07 475.48 1572.01H475.653ZM488.108 1491.26L487.416 1492.29C484.994 1487.8 487.935 1481.75 493.297 1480.36C496.065 1484.34 493.124 1490.22 488.108 1491.26ZM502.465 200.759C496.411 185.888 497.275 168.769 505.059 154.417C513.535 165.484 499.005 180.874 503.849 193.67C509.211 208.022 510.249 223.585 506.789 238.283C500.562 228.772 498.832 217.187 501.946 206.466C502.465 204.564 503.33 202.489 502.465 200.587V200.759ZM505.405 246.41C512.843 255.229 514.919 267.506 510.768 278.055C503.33 269.236 501.254 256.958 505.405 246.41ZM505.924 1413.62C503.849 1412.23 502.984 1409.81 503.849 1407.74H503.676C504.022 1405.83 507.827 1406.35 508.346 1408.26C508.865 1410.16 507.481 1412.06 505.924 1413.62ZM514.573 1366.24C512.151 1361.74 509.557 1357.24 507.135 1352.92V1352.23C509.73 1349.12 516.13 1351.37 517.341 1355C518.552 1358.8 516.649 1362.61 514.573 1366.24ZM518.898 1323.18C517.514 1321.62 515.957 1319.72 516.476 1317.82C516.995 1315.92 520.8 1315.4 521.146 1317.3H520.973C521.838 1319.38 520.973 1321.97 518.898 1323.18ZM523.049 439.215C522.011 435.411 519.935 431.78 516.995 429.013C518.898 426.592 523.741 426.592 525.471 429.186C526.682 432.644 525.817 436.622 523.222 439.215H523.049ZM523.222 1299.66C520.108 1296.38 520.108 1291.02 523.222 1287.56L523.568 1287.04C525.471 1287.56 527.547 1288.25 529.449 1288.94C527.374 1292.57 525.298 1296.03 523.222 1299.49V1299.66ZM527.72 1268.02C524.779 1266.29 524.779 1261.79 527.72 1260.24C530.66 1261.97 530.66 1266.29 527.72 1268.02ZM537.925 1201.79C536.022 1213.72 534.12 1225.65 532.217 1237.58C527.547 1221.68 529.276 1204.21 536.887 1189.17C539.309 1192.97 538.617 1197.47 537.925 1201.79ZM545.19 871.341C543.806 869.785 542.25 867.883 542.769 865.981C543.287 864.078 547.093 863.387 547.439 865.462H547.093C547.958 867.537 547.093 870.131 545.017 871.341H545.19ZM545.19 973.536C548.131 975.266 548.131 979.589 545.19 981.318C542.25 979.589 542.25 975.266 545.19 973.536ZM545.19 957.974C547.093 957.974 547.093 961.259 545.19 961.259C543.287 961.259 543.287 958.147 545.19 957.974ZM545.19 953.478C545.19 953.478 544.152 953.824 543.806 953.824C540.174 953.824 537.233 947.771 541.212 946.042C545.536 944.14 549.688 951.576 545.363 953.478H545.19ZM540.866 993.076C545.363 994.979 540.866 1002.59 536.714 1000.51C532.39 998.61 536.714 991.174 541.039 993.076H540.866ZM538.79 1144.21H538.617C539.482 1146.46 538.617 1149.05 536.368 1150.26C534.466 1147.49 533.082 1144.04 534.639 1141.1C536.195 1138.16 541.904 1137.29 543.115 1140.4C541.731 1141.61 540.347 1143 538.79 1144.38V1144.21ZM536.541 614.729C540.174 625.623 540.174 637.208 536.541 648.102C532.909 637.208 532.909 625.623 536.541 614.729ZM540.866 1122.94C542.769 1122.94 542.769 1126.05 540.866 1126.22C539.136 1126.22 538.963 1122.94 540.866 1122.94ZM542.942 1024.72C544.152 1020.74 543.461 1016.42 541.039 1012.96C539.655 1010.89 537.579 1008.81 538.617 1006.56C539.828 1003.97 544.325 1004.32 546.401 1006.56C548.304 1008.81 548.304 1011.75 548.304 1014.52C548.304 1018.67 547.266 1023.68 542.942 1024.89V1024.72ZM545.536 926.502C542.942 923.736 542.077 919.759 543.287 916.3C542.077 912.669 542.942 908.692 545.709 905.925C548.65 912.323 548.65 919.931 545.709 926.329L545.536 926.502ZM545.19 852.32C542.769 842.982 542.077 833.472 543.287 823.961C545.709 823.442 547.093 826.209 547.439 828.457C548.477 836.411 547.785 844.711 545.19 852.32ZM540.001 815.834C537.752 805.459 537.925 794.565 540.347 784.19C542.769 789.55 545.882 794.738 546.574 800.617C547.439 806.323 545.363 812.894 539.828 815.834H540.001ZM540.693 717.789C544.844 720.555 544.152 727.472 539.482 729.547L538.963 727.645C538.098 724.36 538.617 720.728 540.693 717.789ZM543.633 708.97C543.633 708.97 542.942 708.97 542.596 708.97C539.136 708.97 537.752 702.572 541.731 702.226L543.806 707.759L543.461 708.97H543.633ZM539.309 666.777H538.79C534.466 666.777 533.428 659.861 537.579 658.823C537.579 662.627 539.655 666.432 543.115 668.852C542.077 670.927 537.752 668.68 539.309 666.777ZM539.309 584.295C540.001 587.926 540.52 592.249 537.406 594.843C536.714 595.362 535.849 595.535 534.985 595.535C531.871 595.535 528.411 592.595 530.833 590.52C534.985 586.716 534.812 580.491 532.909 575.476C531.006 570.461 527.547 565.793 526.163 560.605C525.99 559.913 525.817 559.049 526.163 558.357C526.855 556.109 530.487 555.936 532.39 557.492C534.293 559.049 534.812 561.469 535.331 563.717C536.714 570.634 538.098 577.551 539.309 584.295ZM532.217 548.846C530.833 547.29 529.276 545.388 529.795 543.486C530.314 541.584 534.12 540.892 534.466 542.967H534.12C534.985 545.042 534.12 547.636 532.044 548.846H532.217ZM532.217 517.375C529.103 510.977 527.201 504.06 526.855 496.971C528.411 499.564 529.795 502.158 531.352 504.752H530.66C535.331 507.173 536.195 513.917 532.217 517.202V517.375ZM530.141 455.47C530.833 464.635 530.141 473.799 528.411 482.791C526.509 477.777 524.433 472.935 522.53 467.92H521.146C523.049 464.808 520.973 460.83 520.8 457.026C520.8 453.222 525.125 448.726 528.411 451.147C529.795 452.184 530.141 453.914 530.141 455.643V455.47ZM525.471 409.3C526.509 411.203 525.644 413.623 523.741 414.834C517.514 412.413 514.919 404.459 518.725 399.444C522.703 401.346 525.471 405.15 525.99 409.127H525.298L525.471 409.3ZM523.741 375.927C526.682 379.385 526.682 384.573 523.741 387.858C521.665 386.648 520.627 384.054 521.492 381.979C520.627 379.731 521.492 377.137 523.741 375.927ZM520.973 353.274C513.016 341.17 511.46 326.645 510.076 312.811C510.076 312.12 510.076 311.428 510.076 310.736C510.595 309.18 513.016 308.488 514.573 309.526C515.784 310.39 516.13 311.947 516.303 313.33C517.86 326.645 519.417 339.96 520.973 353.274ZM536.714 89.2265C533.428 83.1743 530.141 76.9491 527.028 70.8969C527.201 68.8219 530.487 71.5887 530.141 73.6637L530.833 72.7991C535.504 75.9116 539.655 79.37 543.461 83.3472C541.212 85.2493 538.963 87.3244 536.714 89.2265ZM559.374 108.939C552.109 104.443 547.958 96.1432 549.169 88.3618L553.32 96.662L552.109 97.3537C558.164 97.3537 562.315 104.443 559.374 108.939ZM585.148 175.686C582.207 173.957 582.207 169.461 585.148 167.905C588.089 169.634 588.089 173.957 585.148 175.686ZM622.857 234.825L622.338 234.306C622.338 234.306 621.819 234.479 621.473 234.479C619.571 234.479 618.187 231.02 620.608 230.502C621.992 232.923 624.241 234.998 627.009 236.208C626.317 238.456 621.3 236.554 622.857 234.652V234.825ZM646.728 257.823C644.825 257.823 644.825 254.537 646.728 254.537C648.631 254.537 648.631 257.65 646.728 257.823ZM673.194 357.252C665.237 344.11 664.891 327.855 656.934 314.713C652.263 306.932 644.825 297.594 650.534 290.332C657.28 305.203 664.026 320.074 670.772 334.945C674.059 342.208 677.345 350.508 673.367 357.425L673.194 357.252ZM679.94 368.318L679.421 367.8C679.421 367.8 678.902 367.973 678.556 367.973C676.653 367.973 675.269 364.514 677.518 363.995C678.902 366.589 681.151 368.491 683.918 369.702C683.399 371.95 678.21 370.048 679.767 368.146L679.94 368.318ZM686.34 385.783L685.994 385.956C685.648 385.956 685.475 385.437 685.475 384.919C685.475 384.4 685.475 383.881 686.34 383.881C687.724 383.881 688.416 385.61 688.416 386.994V387.34C696.027 388.723 699.659 398.406 694.816 403.594C689.799 398.579 686.859 392.181 686.513 385.437L686.34 385.783Z" fill="#1FCCE8"/>
</svg>
