<svg width="1442" height="1154" viewBox="0 0 1442 1154" fill="none" xmlns="http://www.w3.org/2000/svg">
<path d="M23.5431 976.926C28.014 1039.01 47.0089 1099.82 78.7669 1153.29C78.6667 1032.87 97.7683 912.53 135.237 798.149C149.372 754.823 169.545 708.352 210.787 688.763C209.557 684.963 208.325 680.99 207.095 677.19C224.824 659.97 253.953 673.143 274.437 687.051C301.69 705.423 328.942 723.796 356.195 742.168C369.562 751.269 382.425 729.749 384.245 713.65C394.514 624.842 396.811 533.479 429.251 450.266C461.863 367.053 533.954 291.422 623.192 287.156C643.253 286.188 663.853 289.024 680.86 299.663C696.652 309.444 707.977 325.129 718.607 340.3C737.599 367.019 756.765 393.738 775.757 420.284C763.992 386.261 745.32 354.696 721.138 328.003C756.54 349.966 780.785 388.943 784.804 430.445C801.453 438.664 816.73 449.312 830.288 462.045C856.746 359.486 885.43 252.417 956.468 173.85C975.389 152.818 997.263 134.366 1020.88 118.847C1070.19 86.7589 1133.58 68.4397 1188.36 90.1307C1214.36 100.551 1236.25 118.951 1255.9 139.092C1321.63 206.229 1366.54 293.542 1382.58 386.195C1385.14 379.78 1387.71 373.365 1390.44 366.95C1388.79 383.221 1391.68 405.525 1407.95 407.172C1420.93 408.489 1429.5 394.258 1433.42 381.954C1457.25 306.052 1427.24 222.641 1381.06 157.826C1341.16 101.802 1288.15 53.9771 1225.22 25.9267C1162.28 -1.95081 1089.07 -9.01396 1023.8 12.9483C954.895 35.9671 898.95 89.3696 861.559 151.673C824.169 213.977 803.776 285.017 789.612 356.198C757.034 277.818 664.265 234.523 580.253 245.854C496.068 257.187 423.193 315.002 378.415 387.205C333.811 459.408 314.528 544.629 306.487 629.1C253.989 579.197 163.07 592.986 109.175 641.361C55.2795 689.735 30.7441 762.527 15.0209 833.37C-4.08822 918.59 -12.0742 1013.96 35.1813 1087.25C26.3473 1051.31 22.3506 1014.13 23.3703 976.927L23.5431 976.926ZM1382.82 331.867C1380.22 329.978 1380.2 326.172 1380.53 323.056C1381.18 315.44 1382.01 307.823 1382.66 300.034C1388.59 309.519 1388.65 322.322 1382.82 331.867ZM1351.81 221.299C1365.03 235.591 1373.77 253.885 1376.81 273.247C1377.35 276.186 1377.53 279.126 1376.34 281.727C1375.14 284.329 1371.86 286.248 1369.26 284.878C1365.57 273.305 1367.75 260.145 1362.16 249.274C1357.44 239.955 1347.18 230.492 1351.98 221.125L1351.81 221.299ZM1332.29 192.852C1340.09 196.445 1344.64 205.765 1342.6 214.08C1337.21 208.052 1331.29 200.989 1332.29 192.852ZM1327.69 207.409C1332.38 211.537 1335.7 217.575 1336.43 223.8L1334.36 225.541C1327.25 223.328 1323.75 213.658 1327.69 207.409ZM1042.21 61.8162C1043.94 61.8073 1044.65 65.0906 1042.75 65.4465C1040.85 65.4563 1040.31 62.1719 1042.21 61.8162ZM820.017 314.865C822.448 316.582 825.052 318.472 827.483 320.19C826.459 322.963 822.66 324.194 820.229 322.476C817.799 320.759 817.777 316.606 820.19 314.864L820.017 314.865ZM808.352 333.956C812.159 334.109 815.463 337.38 815.827 341.011C815.836 342.741 815.671 344.299 815.334 346.031L808.238 378.94C805.98 377.221 803.895 375.329 801.636 373.437C802.087 360.113 804.44 346.779 808.352 333.783L808.352 333.956ZM532.064 293.854C534.318 294.88 535.716 297.641 535.209 300.066L535.555 300.064C535.566 302.14 531.761 302.16 530.712 300.089C529.837 298.017 531.036 295.762 532.064 293.854ZM402.385 372.722C404.288 372.712 404.651 375.997 402.923 376.352C401.02 376.362 400.484 373.078 402.385 372.722ZM387.29 397.54C388.673 397.36 389.885 397.527 390.757 398.907C393.545 402.871 385.962 408.274 383.174 404.309C381.084 401.551 384.352 398.074 387.29 397.54ZM364.316 437.451C370.038 440.19 367.314 448.682 364.055 454.062C360.622 459.27 357.363 464.65 353.93 469.858C353.698 458.267 357.444 446.656 364.489 437.45L364.316 437.451ZM332.2 583.466L332.546 583.464C334.792 582.933 336.882 585.864 336.549 588.288C336.216 590.885 334.497 592.97 333.299 595.398C327.135 607.714 336.902 623.235 331.603 635.719C336.287 638.29 338.224 644.854 335.48 649.54C329.233 645.766 326.944 637.819 326.041 630.557C324.23 614.649 326.222 598.376 332.2 583.466ZM46.8916 841.51L47.7504 840.295C46.1749 836.67 46.1535 832.517 47.8654 829.048C49.7789 831.115 51.8673 833.526 52.0554 836.466C52.2426 839.234 49.6646 842.534 46.8925 841.683L46.8916 841.51ZM74.6092 714.723L74.259 713.859L77.8656 708.823C80.2971 710.714 82.2158 713.819 81.8868 717.107C81.5576 720.396 78.1115 723.009 74.9926 721.987C72.0466 720.964 71.5 715.604 74.6092 714.723ZM69.8482 764.402L72.1042 765.774C70.5722 770.626 62.0773 767.037 62.3966 761.845C62.7167 756.826 67.7156 753.34 72.0277 750.896C74.1264 755.383 73.117 760.925 69.8482 764.402ZM60.1999 738.327C63.3207 739.695 64.2105 744.534 61.6283 746.97C58.5076 745.602 57.6168 740.589 60.1999 738.327ZM52.7792 775.389C54.682 775.38 55.2178 778.664 53.3168 779.02C51.414 779.029 50.8782 775.745 52.7792 775.389ZM42.8682 799.143C47.0081 796.872 41.9546 789.632 44.8765 785.984C45.3919 785.289 46.0821 784.939 46.7731 784.763C49.884 784.228 53.5378 788.361 53.3844 792.168C53.0625 796.841 49.9712 801.183 50.3412 805.852C50.5284 808.619 52.0985 811.206 52.4586 813.973C52.8188 816.739 51.7988 820.205 49.0338 820.738C44.3678 821.627 43.4663 814.538 42.4045 809.872C41.1669 804.688 36.9923 800.211 31.7967 799.027C33.851 794.864 41.1172 795 43.0422 799.315L42.8682 799.143ZM35.6188 835.859C37.5216 835.849 38.0574 839.134 36.1564 839.489C34.2536 839.499 33.8907 836.214 35.6188 835.859ZM34.1127 845.728C34.1127 845.728 35.3234 845.722 35.845 846.238L34.9827 846.762C36.7188 847.964 38.4549 849.166 40.018 850.369C38.1303 853.32 33.4652 854.382 31.3752 851.625C29.6348 849.558 31.6927 846.087 33.9395 845.729L34.1127 845.728ZM23.0756 953.226C27.4133 955.799 27.7975 963.236 23.6621 966.372L22.6141 964.474C20.8782 963.272 19.3152 962.069 17.5791 960.867L23.0765 953.399L23.0756 953.226Z" fill="#1FCCE8"/>
</svg>
